<?xml version="1.0" ?><svg height="105px" version="1.1" viewBox="0 0 105 105" width="105px" xmlns="http://www.w3.org/2000/svg" xmlns:sketch="http://www.bohemiancoding.com/sketch/ns" xmlns:xlink="http://www.w3.org/1999/xlink"><title/><defs/><g fill="none" fill-rule="evenodd" id="Imoticon" stroke="none" stroke-width="1"><path d="M78.3325227,84.7218754 C87.8870687,77.0232137 94,65.2254831 94,52 C94,28.8040394 75.1959606,10 52,10 C28.8040394,10 10,28.8040394 10,52 C10,65.4571682 16.3289809,77.4361229 26.1727635,85.1226847 L26.1727635,85.1226847 L26.1727635,48.6113511 C25.5207725,48.6852066 25.088942,48.680399 24.9760742,48.5527344 C24.4006348,47.9018555 29.3027344,42.3564452 38.4814453,42.3564453 C45.0683594,42.3564454 47.8659667,48.5302734 46.8911133,49.2036133 C45.9162598,49.8769531 41.7373196,46.7817383 38.4814455,46.7817383 C38.1687511,46.7724512 37.5848654,84.8968057 37.4871761,91.4250816 C42.0101963,93.0906008 46.8988973,94 52,94 C57.2905671,94 62.3526615,93.0217928 67.0152827,91.2363788 C66.9096701,84.1965822 66.3336502,46.7725369 66.0238408,46.7817383 C62.7679667,46.7817383 58.5890265,49.8769531 57.614173,49.2036133 C56.6393196,48.5302734 59.4369269,42.3564454 66.0238409,42.3564453 C75.2025519,42.3564452 80.1046514,47.9018555 79.529212,48.5527344 C79.4163442,48.680399 78.9845137,48.6852066 78.3325228,48.6113511 L78.3325227,84.7218754 L78.3325227,84.7218754 Z M19.5371094,47.8393558 C20.7993164,49.1713864 24.4853513,42.7732705 27.8808591,39.8168943 C31.2763669,36.8605183 35.8671881,35.8950195 35.2509762,34.2788085 C34.6347643,32.6625976 28.2041015,34.8950195 25.7109376,36.5717773 C23.2177739,38.2485352 18.2749024,46.507325 19.5371094,47.8393558 Z M84.2699643,47.8393558 C83.0077572,49.1713864 79.3217223,42.7732705 75.9262146,39.8168943 C72.5307068,36.8605183 67.9398855,35.8950195 68.5560974,34.2788085 C69.1723094,32.6625976 75.6029721,34.8950195 78.096136,36.5717773 C80.5892998,38.2485352 85.5321712,46.507325 84.2699643,47.8393558 Z M52,84 C56.970563,84 61,78.8512749 61,72.5 C61,66.1487251 56.970563,61 52,61 C47.029437,61 43,66.1487251 43,72.5 C43,78.8512749 47.029437,84 52,84 Z M52,84" fill="#000000" id="imoticon_24"/></g></svg>