<?xml version="1.0" ?><svg height="105px" version="1.1" viewBox="0 0 105 105" width="105px" xmlns="http://www.w3.org/2000/svg" xmlns:sketch="http://www.bohemiancoding.com/sketch/ns" xmlns:xlink="http://www.w3.org/1999/xlink"><title/><defs/><g fill="none" fill-rule="evenodd" id="Imoticon" stroke="none" stroke-width="1"><path d="M52,94 C75.1959606,94 94,75.1959606 94,52 C94,28.8040394 75.1959606,10 52,10 C28.8040394,10 10,28.8040394 10,52 C10,75.1959606 28.8040394,94 52,94 Z M52.2207031,78.0175834 C48.1276855,78.0262024 41,81.5678764 41,81.5678764 C41,81.5678764 41.590332,71.9918097 51.6174316,72.0000053 C61.6445312,72.0082011 62.2348633,81.6181693 62.2348633,81.6181693 C62.2348633,81.6181693 56.3137207,78.0089643 52.2207031,78.0175834 Z M35.9528809,61.4550781 C31.8598633,61.4636971 25.7172852,64.1921387 25.3354492,62.6738334 C24.9536135,61.1555281 25.9257812,56.0977668 35.9528809,56.1059623 C45.9799805,56.1141582 46.663818,59.7502442 46.6638184,61.9785156 C46.6638184,64.2067871 40.0458984,61.4464591 35.9528809,61.4550781 Z M67.4421229,61.4550781 C71.5351405,61.4636971 77.6777186,64.1921387 78.0595545,62.6738334 C78.4413903,61.1555281 77.4692225,56.0977668 67.4421229,56.1059623 C57.4150233,56.1141582 56.7311857,59.7502442 56.7311854,61.9785156 C56.7311854,64.2067871 63.3491053,61.4464591 67.4421229,61.4550781 Z M25,49 C29.7491871,49 33.5991636,44.936136 33.5991636,39.9231051 C33.5991636,34.9100743 28.6482996,32.8984954 25.6060283,21 C21.664745,32.8984954 16.4008364,34.9100743 16.4008364,39.9231051 C16.4008364,44.936136 20.2508129,49 25,49 Z M25,49" fill="#000000" id="imoticon_29"/></g></svg>